
=== 2026-04-23T10:17:10.001Z node gen-criaprof.js motorista-app ===

[criaprof:motorista-app] 50 imagens em /home/nmaldaner/projetos/timesmkt3/prj/inema/videos/criaprof/motorista-app_2026-04-23/imgs

── 1/50 ── cena01-ini.png
[inemaimg] model=flux2-klein quality=fast ratio=1:1 (512x512) steps=4
[inemaimg] prompt: Cozy 1980s Brazilian home with a family car and a driver calmly navigating city traffic, warm afternoon light spilling t...
[inemaimg] ✅ saved: /home/nmaldaner/projetos/timesmkt3/prj/inema/videos/criaprof/motorista-app_2026-04-23/imgs/cena01-ini.png  (server=2.12s wall=2.2s vram=32.3GB)
── 2/50 ── cena01-fim.png
[inemaimg] model=flux2-klein quality=fast ratio=1:1 (512x512) steps=4
[inemaimg] prompt: Brazilian man with warm medium skin, short neat dark hair, warm friendly eyes, calm driver-of-people presence, cap visib...
[inemaimg] ✅ saved: /home/nmaldaner/projetos/timesmkt3/prj/inema/videos/criaprof/motorista-app_2026-04-23/imgs/cena01-fim.png  (server=2.13s wall=2.2s vram=32.3GB)
── 3/50 ── cena02-ini.png
[inemaimg] model=flux2-klein quality=fast ratio=1:1 (512x512) steps=4
[inemaimg] prompt: 1980s brazilian bedroom with a toy car and a paper city map sitting on a bedspread, old wooden toy shelf behind, warm no...
[inemaimg] ✅ saved: /home/nmaldaner/projetos/timesmkt3/prj/inema/videos/criaprof/motorista-app_2026-04-23/imgs/cena02-ini.png  (server=2.12s wall=2.2s vram=32.3GB)
── 4/50 ── cena02-fim.png
[inemaimg] model=flux2-klein quality=fast ratio=1:1 (512x512) steps=4
[inemaimg] prompt: Brazilian man with warm medium skin, short neat dark hair, warm friendly eyes, calm driver-of-people presence, cap visib...
[inemaimg] ✅ saved: /home/nmaldaner/projetos/timesmkt3/prj/inema/videos/criaprof/motorista-app_2026-04-23/imgs/cena02-fim.png  (server=2.12s wall=2.2s vram=32.3GB)
── 5/50 ── cena03-ini.png
[inemaimg] model=flux2-klein quality=fast ratio=1:1 (512x512) steps=4
[inemaimg] prompt: 1980s brazilian public school classroom with wooden desks, chalkboard with a chalkboard with road-sign diagrams, sunligh...
[inemaimg] ✅ saved: /home/nmaldaner/projetos/timesmkt3/prj/inema/videos/criaprof/motorista-app_2026-04-23/imgs/cena03-ini.png  (server=2.12s wall=2.2s vram=32.3GB)
── 6/50 ── cena03-fim.png
[inemaimg] model=flux2-klein quality=fast ratio=1:1 (512x512) steps=4
[inemaimg] prompt: Brazilian man with warm medium skin, short neat dark hair, warm friendly eyes, calm driver-of-people presence, cap visib...
[inemaimg] ✅ saved: /home/nmaldaner/projetos/timesmkt3/prj/inema/videos/criaprof/motorista-app_2026-04-23/imgs/cena03-fim.png  (server=2.12s wall=2.2s vram=32.3GB)
── 7/50 ── cena04-ini.png
[inemaimg] model=flux2-klein quality=fast ratio=1:1 (512x512) steps=4
[inemaimg] prompt: Warm family living room 1980s with a an old brazilian city map booklet on a crochet tablecloth, old TV tube in backgroun...
[inemaimg] ✅ saved: /home/nmaldaner/projetos/timesmkt3/prj/inema/videos/criaprof/motorista-app_2026-04-23/imgs/cena04-ini.png  (server=2.12s wall=2.2s vram=32.3GB)
── 8/50 ── cena04-fim.png
[inemaimg] model=flux2-klein quality=fast ratio=1:1 (512x512) steps=4
[inemaimg] prompt: Brazilian man with warm medium skin, short neat dark hair, warm friendly eyes, calm driver-of-people presence, cap visib...
[inemaimg] ✅ saved: /home/nmaldaner/projetos/timesmkt3/prj/inema/videos/criaprof/motorista-app_2026-04-23/imgs/cena04-fim.png  (server=2.13s wall=2.2s vram=32.3GB)
── 9/50 ── cena05-ini.png
[inemaimg] model=flux2-klein quality=fast ratio=1:1 (512x512) steps=4
[inemaimg] prompt: Early 1990s brazilian home scene with a grandma needing frequent rides to the doctor, muted afternoon light, familiar ho...
[inemaimg] ✅ saved: /home/nmaldaner/projetos/timesmkt3/prj/inema/videos/criaprof/motorista-app_2026-04-23/imgs/cena05-ini.png  (server=2.13s wall=2.2s vram=32.3GB)
── 10/50 ── cena05-fim.png
[inemaimg] model=flux2-klein quality=fast ratio=1:1 (512x512) steps=4
[inemaimg] prompt: Brazilian man with warm medium skin, short neat dark hair, warm friendly eyes, calm driver-of-people presence, cap visib...
[inemaimg] ✅ saved: /home/nmaldaner/projetos/timesmkt3/prj/inema/videos/criaprof/motorista-app_2026-04-23/imgs/cena05-fim.png  (server=2.13s wall=2.2s vram=32.3GB)
── 11/50 ── cena06-ini.png
[inemaimg] model=flux2-klein quality=fast ratio=1:1 (512x512) steps=4
[inemaimg] prompt: 1990s brazilian classroom with a traffic-signs brazilian poster on the wall, a notebook open on a wooden desk, afternoon...
[inemaimg] ✅ saved: /home/nmaldaner/projetos/timesmkt3/prj/inema/videos/criaprof/motorista-app_2026-04-23/imgs/cena06-ini.png  (server=2.12s wall=2.2s vram=32.3GB)
── 12/50 ── cena06-fim.png
[inemaimg] model=flux2-klein quality=fast ratio=1:1 (512x512) steps=4
[inemaimg] prompt: Brazilian man with warm medium skin, short neat dark hair, warm friendly eyes, calm driver-of-people presence, cap visib...
[inemaimg] ✅ saved: /home/nmaldaner/projetos/timesmkt3/prj/inema/videos/criaprof/motorista-app_2026-04-23/imgs/cena06-fim.png  (server=2.12s wall=2.2s vram=32.3GB)
── 13/50 ── cena07-ini.png
[inemaimg] model=flux2-klein quality=fast ratio=1:1 (512x512) steps=4
[inemaimg] prompt: Late 1990s brazilian teen bedroom with car keys, city map, order book, posters on wall, boombox stereo, warm window ligh...
[inemaimg] ✅ saved: /home/nmaldaner/projetos/timesmkt3/prj/inema/videos/criaprof/motorista-app_2026-04-23/imgs/cena07-ini.png  (server=2.13s wall=2.2s vram=32.3GB)
── 14/50 ── cena07-fim.png
[inemaimg] model=flux2-klein quality=fast ratio=1:1 (512x512) steps=4
[inemaimg] prompt: Brazilian man with warm medium skin, short neat dark hair, warm friendly eyes, calm driver-of-people presence, cap visib...
[inemaimg] ✅ saved: /home/nmaldaner/projetos/timesmkt3/prj/inema/videos/criaprof/motorista-app_2026-04-23/imgs/cena07-fim.png  (server=2.12s wall=2.2s vram=32.3GB)
── 15/50 ── cena08-ini.png
[inemaimg] model=flux2-klein quality=fast ratio=1:1 (512x512) steps=4
[inemaimg] prompt: Late 1990s brazilian dining table with a professional driver license guide (course catalog, vestibular books), family ki...
[inemaimg] ✅ saved: /home/nmaldaner/projetos/timesmkt3/prj/inema/videos/criaprof/motorista-app_2026-04-23/imgs/cena08-ini.png  (server=2.12s wall=2.2s vram=32.3GB)
── 16/50 ── cena08-fim.png
[inemaimg] model=flux2-klein quality=fast ratio=1:1 (512x512) steps=4
[inemaimg] prompt: Brazilian man with warm medium skin, short neat dark hair, warm friendly eyes, calm driver-of-people presence, cap visib...
[inemaimg] ✅ saved: /home/nmaldaner/projetos/timesmkt3/prj/inema/videos/criaprof/motorista-app_2026-04-23/imgs/cena08-fim.png  (server=2.13s wall=2.2s vram=32.3GB)
── 17/50 ── cena09-ini.png
[inemaimg] model=flux2-klein quality=fast ratio=1:1 (512x512) steps=4
[inemaimg] prompt: Early 2000s brazilian driving school hallway with bulletin board, backpacks on the floor, natural daylight through tall ...
[inemaimg] ✅ saved: /home/nmaldaner/projetos/timesmkt3/prj/inema/videos/criaprof/motorista-app_2026-04-23/imgs/cena09-ini.png  (server=2.12s wall=2.2s vram=32.3GB)
── 18/50 ── cena09-fim.png
[inemaimg] model=flux2-klein quality=fast ratio=1:1 (512x512) steps=4
[inemaimg] prompt: Brazilian man with warm medium skin, short neat dark hair, warm friendly eyes, calm driver-of-people presence, cap visib...
[inemaimg] ✅ saved: /home/nmaldaner/projetos/timesmkt3/prj/inema/videos/criaprof/motorista-app_2026-04-23/imgs/cena09-fim.png  (server=2.13s wall=2.2s vram=32.3GB)
── 19/50 ── cena10-ini.png
[inemaimg] model=flux2-klein quality=fast ratio=1:1 (512x512) steps=4
[inemaimg] prompt: University study room with traffic laws manual and driving tips, notebooks piled, coffee cup, clean daylight, cinematic,...
[inemaimg] ✅ saved: /home/nmaldaner/projetos/timesmkt3/prj/inema/videos/criaprof/motorista-app_2026-04-23/imgs/cena10-ini.png  (server=2.12s wall=2.2s vram=32.3GB)
── 20/50 ── cena10-fim.png
[inemaimg] model=flux2-klein quality=fast ratio=1:1 (512x512) steps=4
[inemaimg] prompt: Brazilian man with warm medium skin, short neat dark hair, warm friendly eyes, calm driver-of-people presence, cap visib...
[inemaimg] ✅ saved: /home/nmaldaner/projetos/timesmkt3/prj/inema/videos/criaprof/motorista-app_2026-04-23/imgs/cena10-fim.png  (server=2.13s wall=2.2s vram=32.3GB)
── 21/50 ── cena11-ini.png
[inemaimg] model=flux2-klein quality=fast ratio=1:1 (512x512) steps=4
[inemaimg] prompt: Small small brazilian delivery company with a professional car cabin with a dispatch radio, soft neutral daylight, early...
[inemaimg] ✅ saved: /home/nmaldaner/projetos/timesmkt3/prj/inema/videos/criaprof/motorista-app_2026-04-23/imgs/cena11-ini.png  (server=2.12s wall=2.2s vram=32.3GB)
── 22/50 ── cena11-fim.png
[inemaimg] model=flux2-klein quality=fast ratio=1:1 (512x512) steps=4
[inemaimg] prompt: Brazilian man with warm medium skin, short neat dark hair, warm friendly eyes, calm driver-of-people presence, cap visib...
[inemaimg] ✅ saved: /home/nmaldaner/projetos/timesmkt3/prj/inema/videos/criaprof/motorista-app_2026-04-23/imgs/cena11-fim.png  (server=2.13s wall=2.2s vram=32.3GB)
── 23/50 ── cena12-ini.png
[inemaimg] model=flux2-klein quality=fast ratio=1:1 (512x512) steps=4
[inemaimg] prompt: Early 2000s graduation scene, empty graduation cap and diploma on a table, family photograph nearby, soft warm light, ci...
[inemaimg] ✅ saved: /home/nmaldaner/projetos/timesmkt3/prj/inema/videos/criaprof/motorista-app_2026-04-23/imgs/cena12-ini.png  (server=2.13s wall=2.2s vram=32.3GB)
── 24/50 ── cena12-fim.png
[inemaimg] model=flux2-klein quality=fast ratio=1:1 (512x512) steps=4
[inemaimg] prompt: Brazilian man with warm medium skin, short neat dark hair, warm friendly eyes, calm driver-of-people presence, cap visib...
[inemaimg] ✅ saved: /home/nmaldaner/projetos/timesmkt3/prj/inema/videos/criaprof/motorista-app_2026-04-23/imgs/cena12-fim.png  (server=2.12s wall=2.2s vram=32.3GB)
── 25/50 ── cena13-ini.png
[inemaimg] model=flux2-klein quality=fast ratio=1:1 (512x512) steps=4
[inemaimg] prompt: brazilian city streets and rideshare car in 2000s with a paper map, car keys and radio dispatch on a work surface, warm ...
[inemaimg] ✅ saved: /home/nmaldaner/projetos/timesmkt3/prj/inema/videos/criaprof/motorista-app_2026-04-23/imgs/cena13-ini.png  (server=2.13s wall=2.2s vram=32.3GB)
── 26/50 ── cena13-fim.png
[inemaimg] model=flux2-klein quality=fast ratio=1:1 (512x512) steps=4
[inemaimg] prompt: Brazilian man with warm medium skin, short neat dark hair, warm friendly eyes, calm driver-of-people presence, cap visib...
[inemaimg] ✅ saved: /home/nmaldaner/projetos/timesmkt3/prj/inema/videos/criaprof/motorista-app_2026-04-23/imgs/cena13-fim.png  (server=2.12s wall=2.2s vram=32.3GB)
── 27/50 ── cena14-ini.png
[inemaimg] model=flux2-klein quality=fast ratio=1:1 (512x512) steps=4
[inemaimg] prompt: Well-organized brazilian city streets and rideshare car with clean car interior, AC on, phone mount, water bottles, soft...
[inemaimg] ✅ saved: /home/nmaldaner/projetos/timesmkt3/prj/inema/videos/criaprof/motorista-app_2026-04-23/imgs/cena14-ini.png  (server=2.12s wall=2.2s vram=32.3GB)
── 28/50 ── cena14-fim.png
[inemaimg] model=flux2-klein quality=fast ratio=1:1 (512x512) steps=4
[inemaimg] prompt: Brazilian man with warm medium skin, short neat dark hair, warm friendly eyes, calm driver-of-people presence, cap visib...
[inemaimg] ✅ saved: /home/nmaldaner/projetos/timesmkt3/prj/inema/videos/criaprof/motorista-app_2026-04-23/imgs/cena14-fim.png  (server=2.11s wall=2.2s vram=32.3GB)
── 29/50 ── cena15-ini.png
[inemaimg] model=flux2-klein quality=fast ratio=1:1 (512x512) steps=4
[inemaimg] prompt: brazilian city streets and rideshare car set up for a rideshare trip, chairs or bed positioned, natural light, cinematic...
[inemaimg] ✅ saved: /home/nmaldaner/projetos/timesmkt3/prj/inema/videos/criaprof/motorista-app_2026-04-23/imgs/cena15-ini.png  (server=2.12s wall=2.2s vram=32.3GB)
── 30/50 ── cena15-fim.png
[inemaimg] model=flux2-klein quality=fast ratio=1:1 (512x512) steps=4
[inemaimg] prompt: Brazilian man with warm medium skin, short neat dark hair, warm friendly eyes, calm driver-of-people presence, cap visib...
[inemaimg] ✅ saved: /home/nmaldaner/projetos/timesmkt3/prj/inema/videos/criaprof/motorista-app_2026-04-23/imgs/cena15-fim.png  (server=2.12s wall=2.2s vram=32.3GB)
── 31/50 ── cena16-ini.png
[inemaimg] model=flux2-klein quality=fast ratio=1:1 (512x512) steps=4
[inemaimg] prompt: brazilian city streets and rideshare car in 2010s with a desktop monitor showing rideshare driver app, cables visible, m...
[inemaimg] ✅ saved: /home/nmaldaner/projetos/timesmkt3/prj/inema/videos/criaprof/motorista-app_2026-04-23/imgs/cena16-ini.png  (server=2.12s wall=2.2s vram=32.3GB)
── 32/50 ── cena16-fim.png
[inemaimg] model=flux2-klein quality=fast ratio=1:1 (512x512) steps=4
[inemaimg] prompt: Brazilian man with warm medium skin, short neat dark hair, warm friendly eyes, calm driver-of-people presence, cap visib...
[inemaimg] ✅ saved: /home/nmaldaner/projetos/timesmkt3/prj/inema/videos/criaprof/motorista-app_2026-04-23/imgs/cena16-fim.png  (server=2.12s wall=2.2s vram=32.3GB)
── 33/50 ── cena17-ini.png
[inemaimg] model=flux2-klein quality=fast ratio=1:1 (512x512) steps=4
[inemaimg] prompt: Close-up on a smartphone running a rideshare driver mobile app next to a paper map, car keys and radio dispatch, brazili...
[inemaimg] ✅ saved: /home/nmaldaner/projetos/timesmkt3/prj/inema/videos/criaprof/motorista-app_2026-04-23/imgs/cena17-ini.png  (server=2.12s wall=2.2s vram=32.3GB)
── 34/50 ── cena17-fim.png
[inemaimg] model=flux2-klein quality=fast ratio=1:1 (512x512) steps=4
[inemaimg] prompt: Brazilian man with warm medium skin, short neat dark hair, warm friendly eyes, calm driver-of-people presence, cap visib...
[inemaimg] ✅ saved: /home/nmaldaner/projetos/timesmkt3/prj/inema/videos/criaprof/motorista-app_2026-04-23/imgs/cena17-fim.png  (server=2.12s wall=2.2s vram=32.3GB)
── 35/50 ── cena18-ini.png
[inemaimg] model=flux2-klein quality=fast ratio=1:1 (512x512) steps=4
[inemaimg] prompt: brazilian city streets and rideshare car with a tripod smartphone set up for driving-tips short video, ring light visibl...
[inemaimg] ✅ saved: /home/nmaldaner/projetos/timesmkt3/prj/inema/videos/criaprof/motorista-app_2026-04-23/imgs/cena18-ini.png  (server=2.12s wall=2.2s vram=32.3GB)
── 36/50 ── cena18-fim.png
[inemaimg] model=flux2-klein quality=fast ratio=1:1 (512x512) steps=4
[inemaimg] prompt: Brazilian man with warm medium skin, short neat dark hair, warm friendly eyes, calm driver-of-people presence, cap visib...
[inemaimg] ✅ saved: /home/nmaldaner/projetos/timesmkt3/prj/inema/videos/criaprof/motorista-app_2026-04-23/imgs/cena18-fim.png  (server=2.13s wall=2.2s vram=32.3GB)
── 37/50 ── cena19-ini.png
[inemaimg] model=flux2-klein quality=fast ratio=1:1 (512x512) steps=4
[inemaimg] prompt: Home office with a laptop showing a video-call remote driver support call, soft daylight, 2020-era improvised workspace,...
[inemaimg] ✅ saved: /home/nmaldaner/projetos/timesmkt3/prj/inema/videos/criaprof/motorista-app_2026-04-23/imgs/cena19-ini.png  (server=2.12s wall=2.2s vram=32.3GB)
── 38/50 ── cena19-fim.png
[inemaimg] model=flux2-klein quality=fast ratio=1:1 (512x512) steps=4
[inemaimg] prompt: Brazilian man with warm medium skin, short neat dark hair, warm friendly eyes, calm driver-of-people presence, cap visib...
[inemaimg] ✅ saved: /home/nmaldaner/projetos/timesmkt3/prj/inema/videos/criaprof/motorista-app_2026-04-23/imgs/cena19-fim.png  (server=2.12s wall=2.2s vram=32.3GB)
── 39/50 ── cena20-ini.png
[inemaimg] model=flux2-klein quality=fast ratio=1:1 (512x512) steps=4
[inemaimg] prompt: Close-up of a monitor showing a driver earnings and ratings dashboard, modern clinical/professional UI, teal accents, so...
[inemaimg] ✅ saved: /home/nmaldaner/projetos/timesmkt3/prj/inema/videos/criaprof/motorista-app_2026-04-23/imgs/cena20-ini.png  (server=2.13s wall=2.2s vram=32.3GB)
── 40/50 ── cena20-fim.png
[inemaimg] model=flux2-klein quality=fast ratio=1:1 (512x512) steps=4
[inemaimg] prompt: Brazilian man with warm medium skin, short neat dark hair, warm friendly eyes, calm driver-of-people presence, cap visib...
[inemaimg] ✅ saved: /home/nmaldaner/projetos/timesmkt3/prj/inema/videos/criaprof/motorista-app_2026-04-23/imgs/cena20-fim.png  (server=2.12s wall=2.2s vram=32.3GB)
── 41/50 ── cena21-ini.png
[inemaimg] model=flux2-klein quality=fast ratio=1:1 (512x512) steps=4
[inemaimg] prompt: Clean modern screen showing an AI route-optimization and demand-prediction tool with personalized output and progress ch...
[inemaimg] ✅ saved: /home/nmaldaner/projetos/timesmkt3/prj/inema/videos/criaprof/motorista-app_2026-04-23/imgs/cena21-ini.png  (server=2.13s wall=2.2s vram=32.3GB)
── 42/50 ── cena21-fim.png
[inemaimg] model=flux2-klein quality=fast ratio=1:1 (512x512) steps=4
[inemaimg] prompt: Brazilian man with warm medium skin, short neat dark hair, warm friendly eyes, calm driver-of-people presence, cap visib...
[inemaimg] ✅ saved: /home/nmaldaner/projetos/timesmkt3/prj/inema/videos/criaprof/motorista-app_2026-04-23/imgs/cena21-fim.png  (server=2.12s wall=2.2s vram=32.3GB)
── 43/50 ── cena22-ini.png
[inemaimg] model=flux2-klein quality=fast ratio=1:1 (512x512) steps=4
[inemaimg] prompt: brazilian city streets and rideshare car with a an AI driver-assistance tool on a phone mount subtly integrated into the...
[inemaimg] ✅ saved: /home/nmaldaner/projetos/timesmkt3/prj/inema/videos/criaprof/motorista-app_2026-04-23/imgs/cena22-ini.png  (server=2.12s wall=2.2s vram=32.3GB)
── 44/50 ── cena22-fim.png
[inemaimg] model=flux2-klein quality=fast ratio=1:1 (512x512) steps=4
[inemaimg] prompt: Brazilian man with warm medium skin, short neat dark hair, warm friendly eyes, calm driver-of-people presence, cap visib...
[inemaimg] ✅ saved: /home/nmaldaner/projetos/timesmkt3/prj/inema/videos/criaprof/motorista-app_2026-04-23/imgs/cena22-fim.png  (server=2.12s wall=2.2s vram=32.3GB)
── 45/50 ── cena23-ini.png
[inemaimg] model=flux2-klein quality=fast ratio=1:1 (512x512) steps=4
[inemaimg] prompt: brazilian city streets and rideshare car with a junior colleague's notebook open, older mentor's hand gesturing to expla...
[inemaimg] ✅ saved: /home/nmaldaner/projetos/timesmkt3/prj/inema/videos/criaprof/motorista-app_2026-04-23/imgs/cena23-ini.png  (server=2.13s wall=2.2s vram=32.3GB)
── 46/50 ── cena23-fim.png
[inemaimg] model=flux2-klein quality=fast ratio=1:1 (512x512) steps=4
[inemaimg] prompt: Brazilian man with warm medium skin, short neat dark hair, warm friendly eyes, calm driver-of-people presence, cap visib...
[inemaimg] ✅ saved: /home/nmaldaner/projetos/timesmkt3/prj/inema/videos/criaprof/motorista-app_2026-04-23/imgs/cena23-fim.png  (server=2.12s wall=2.2s vram=32.3GB)
── 47/50 ── cena24-ini.png
[inemaimg] model=flux2-klein quality=fast ratio=1:1 (512x512) steps=4
[inemaimg] prompt: Bright modern brazilian city streets and rideshare car space with equipment and tools in soft out-of-focus background, w...
[inemaimg] ✅ saved: /home/nmaldaner/projetos/timesmkt3/prj/inema/videos/criaprof/motorista-app_2026-04-23/imgs/cena24-ini.png  (server=2.12s wall=2.2s vram=32.3GB)
── 48/50 ── cena24-fim.png
[inemaimg] model=flux2-klein quality=fast ratio=1:1 (512x512) steps=4
[inemaimg] prompt: Heroic cinematic close-up portrait of the same Brazilian man with warm medium skin, short neat dark hair, warm friendly ...
[inemaimg] ✅ saved: /home/nmaldaner/projetos/timesmkt3/prj/inema/videos/criaprof/motorista-app_2026-04-23/imgs/cena24-fim.png  (server=2.13s wall=2.2s vram=32.3GB)
── 49/50 ── cena25-ini.png
[inemaimg] model=flux2-klein quality=fast ratio=1:1 (512x512) steps=4
[inemaimg] prompt: Wide cinematic shot of brazilian city streets and rideshare car bathed in golden-hour window light, equipment arranged, ...
[inemaimg] ✅ saved: /home/nmaldaner/projetos/timesmkt3/prj/inema/videos/criaprof/motorista-app_2026-04-23/imgs/cena25-ini.png  (server=2.13s wall=2.2s vram=32.3GB)
── 50/50 ── cena25-fim.png
[inemaimg] model=flux2-klein quality=fast ratio=1:1 (512x512) steps=4
[inemaimg] prompt: Wide cinematic shot of the same Brazilian man with warm medium skin, short neat dark hair, warm friendly eyes, calm driv...
[inemaimg] ✅ saved: /home/nmaldaner/projetos/timesmkt3/prj/inema/videos/criaprof/motorista-app_2026-04-23/imgs/cena25-fim.png  (server=2.13s wall=2.2s vram=32.3GB)

[criaprof:motorista-app] ✅ 50/50 em 109.9s (fails=0)

=== 2026-04-23T10:18:59.927Z node gen-gertran-nostalgia.js motorista-app ===

[gertran-nostalgia:motorista-app] 20 imagens em /home/nmaldaner/projetos/timesmkt3/prj/inema/videos/gertran-nostalgia/motorista-app_2026-04-23/imgs

── 1/20 ── nost01.png
[inemaimg] model=flux2-klein quality=fast ratio=1:1 (512x512) steps=4
[inemaimg] prompt: Close-up of 1980s brazilian taxi with a rotary meter and city map on the seat, shot on 35mm film, cinematic grading, war...
[inemaimg] ✅ saved: /home/nmaldaner/projetos/timesmkt3/prj/inema/videos/gertran-nostalgia/motorista-app_2026-04-23/imgs/nost01.png  (server=2.13s wall=2.2s vram=32.3GB)
── 2/20 ── nost02.png
[inemaimg] model=flux2-klein quality=fast ratio=1:1 (512x512) steps=4
[inemaimg] prompt: Vintage brazilian city streets with a taxi stand and taxi drivers chatting, shot on 35mm film, cinematic grading, warm t...
[inemaimg] ✅ saved: /home/nmaldaner/projetos/timesmkt3/prj/inema/videos/gertran-nostalgia/motorista-app_2026-04-23/imgs/nost02.png  (server=2.13s wall=2.2s vram=32.3GB)
── 3/20 ── nost03.png
[inemaimg] model=flux2-klein quality=fast ratio=1:1 (512x512) steps=4
[inemaimg] prompt: Early 2000s taxi with a small GPS unit on the dashboard, cinematic, shallow depth of field, natural light, editorial pho...
[inemaimg] ✅ saved: /home/nmaldaner/projetos/timesmkt3/prj/inema/videos/gertran-nostalgia/motorista-app_2026-04-23/imgs/nost03.png  (server=2.12s wall=2.2s vram=32.3GB)
── 4/20 ── nost04.png
[inemaimg] model=flux2-klein quality=fast ratio=1:1 (512x512) steps=4
[inemaimg] prompt: A smartphone showing a rideshare driver app on a car phone mount, cinematic, shallow depth of field, natural light, edit...
[inemaimg] ✅ saved: /home/nmaldaner/projetos/timesmkt3/prj/inema/videos/gertran-nostalgia/motorista-app_2026-04-23/imgs/nost04.png  (server=2.12s wall=2.2s vram=32.3GB)
── 5/20 ── nost05.png
[inemaimg] model=flux2-klein quality=fast ratio=1:1 (512x512) steps=4
[inemaimg] prompt: Close-up of a cashless payment terminal in a brazilian car, cinematic, shallow depth of field, natural light, editorial ...
[inemaimg] ✅ saved: /home/nmaldaner/projetos/timesmkt3/prj/inema/videos/gertran-nostalgia/motorista-app_2026-04-23/imgs/nost05.png  (server=2.12s wall=2.2s vram=32.3GB)
── 6/20 ── nost06.png
[inemaimg] model=flux2-klein quality=fast ratio=1:1 (512x512) steps=4
[inemaimg] prompt: Modern phone mount showing AI route-optimization with demand prediction overlays, neo-noir clinical lighting, soft glass...
[inemaimg] ✅ saved: /home/nmaldaner/projetos/timesmkt3/prj/inema/videos/gertran-nostalgia/motorista-app_2026-04-23/imgs/nost06.png  (server=2.12s wall=2.2s vram=32.3GB)
── 7/20 ── nost07.png
[inemaimg] model=flux2-klein quality=fast ratio=1:1 (512x512) steps=4
[inemaimg] prompt: Rideshare driver using AI driver-assistance tool on a phone mount, neo-noir clinical lighting, soft glassmorphism, teal ...
[inemaimg] ✅ saved: /home/nmaldaner/projetos/timesmkt3/prj/inema/videos/gertran-nostalgia/motorista-app_2026-04-23/imgs/nost07.png  (server=2.13s wall=2.2s vram=32.3GB)
── 8/20 ── nost08.png
[inemaimg] model=flux2-klein quality=fast ratio=1:1 (512x512) steps=4
[inemaimg] prompt: Cinematic wide shot of a modern brazilian rideshare car integrating tradition and AI, neo-noir clinical lighting, soft g...
[inemaimg] ✅ saved: /home/nmaldaner/projetos/timesmkt3/prj/inema/videos/gertran-nostalgia/motorista-app_2026-04-23/imgs/nost08.png  (server=2.13s wall=2.2s vram=32.3GB)
── 9/20 ── nost09.png
[inemaimg] model=flux2-klein quality=fast ratio=1:1 (512x512) steps=4
[inemaimg] prompt: Cinematic wide shot of a modern brazilian city streets and rideshare car integrating classic expertise and AI technology...
[inemaimg] ✅ saved: /home/nmaldaner/projetos/timesmkt3/prj/inema/videos/gertran-nostalgia/motorista-app_2026-04-23/imgs/nost09.png  (server=2.12s wall=2.2s vram=32.3GB)
── 10/20 ── nost10.png
[inemaimg] model=flux2-klein quality=fast ratio=1:1 (512x512) steps=4
[inemaimg] prompt: Nostalgic 1980s brazilian brazilian city streets and rideshare car with analog tools and warm afternoon light, shot on 3...
[inemaimg] ✅ saved: /home/nmaldaner/projetos/timesmkt3/prj/inema/videos/gertran-nostalgia/motorista-app_2026-04-23/imgs/nost10.png  (server=2.13s wall=2.2s vram=32.3GB)
── 11/20 ── nost11.png
[inemaimg] model=flux2-klein quality=fast ratio=1:1 (512x512) steps=4
[inemaimg] prompt: Close-up of a hand-written note from the 1980s with blue ink, shot on 35mm film, cinematic grading, warm tungsten light,...
[inemaimg] ✅ saved: /home/nmaldaner/projetos/timesmkt3/prj/inema/videos/gertran-nostalgia/motorista-app_2026-04-23/imgs/nost11.png  (server=2.12s wall=2.2s vram=32.3GB)
── 12/20 ── nost12.png
[inemaimg] model=flux2-klein quality=fast ratio=1:1 (512x512) steps=4
[inemaimg] prompt: Vintage a paper map, car keys and radio dispatch on a wooden surface, 1980s domestic warmth, shot on 35mm film, cinemati...
[inemaimg] ✅ saved: /home/nmaldaner/projetos/timesmkt3/prj/inema/videos/gertran-nostalgia/motorista-app_2026-04-23/imgs/nost12.png  (server=2.13s wall=2.2s vram=32.3GB)
── 13/20 ── nost13.png
[inemaimg] model=flux2-klein quality=fast ratio=1:1 (512x512) steps=4
[inemaimg] prompt: Early 2000s brazilian city streets and rideshare car with a desktop computer showing rideshare driver app, cinematic, sh...
[inemaimg] ✅ saved: /home/nmaldaner/projetos/timesmkt3/prj/inema/videos/gertran-nostalgia/motorista-app_2026-04-23/imgs/nost13.png  (server=2.12s wall=2.2s vram=32.3GB)
── 14/20 ── nost14.png
[inemaimg] model=flux2-klein quality=fast ratio=1:1 (512x512) steps=4
[inemaimg] prompt: Close-up of a smartphone running a rideshare driver mobile app next to a paper map, car keys and radio dispatch, cinemat...
[inemaimg] ✅ saved: /home/nmaldaner/projetos/timesmkt3/prj/inema/videos/gertran-nostalgia/motorista-app_2026-04-23/imgs/nost14.png  (server=2.13s wall=2.2s vram=32.3GB)
── 15/20 ── nost15.png
[inemaimg] model=flux2-klein quality=fast ratio=1:1 (512x512) steps=4
[inemaimg] prompt: A laptop showing a remote driver support call session, 2020-era improvised home workspace, cinematic, shallow depth of f...
[inemaimg] ✅ saved: /home/nmaldaner/projetos/timesmkt3/prj/inema/videos/gertran-nostalgia/motorista-app_2026-04-23/imgs/nost15.png  (server=2.12s wall=2.2s vram=32.3GB)
── 16/20 ── nost16.png
[inemaimg] model=flux2-klein quality=fast ratio=1:1 (512x512) steps=4
[inemaimg] prompt: Modern monitor showing a driver earnings and ratings dashboard with teal UI accents, neo-noir clinical lighting, soft gl...
[inemaimg] ✅ saved: /home/nmaldaner/projetos/timesmkt3/prj/inema/videos/gertran-nostalgia/motorista-app_2026-04-23/imgs/nost16.png  (server=2.13s wall=2.2s vram=32.3GB)
── 17/20 ── nost17.png
[inemaimg] model=flux2-klein quality=fast ratio=1:1 (512x512) steps=4
[inemaimg] prompt: Close-up of an AI driver-assistance tool on a phone mount running on a tablet, professional hand swiping, neo-noir clini...
[inemaimg] ✅ saved: /home/nmaldaner/projetos/timesmkt3/prj/inema/videos/gertran-nostalgia/motorista-app_2026-04-23/imgs/nost17.png  (server=2.12s wall=2.2s vram=32.3GB)
── 18/20 ── nost18.png
[inemaimg] model=flux2-klein quality=fast ratio=1:1 (512x512) steps=4
[inemaimg] prompt: Cinematic wide shot of a modern brazilian city streets and rideshare car integrating classic expertise and AI technology...
[inemaimg] ✅ saved: /home/nmaldaner/projetos/timesmkt3/prj/inema/videos/gertran-nostalgia/motorista-app_2026-04-23/imgs/nost18.png  (server=2.13s wall=2.2s vram=32.3GB)
── 19/20 ── nost19.png
[inemaimg] model=flux2-klein quality=fast ratio=1:1 (512x512) steps=4
[inemaimg] prompt: Nostalgic 1980s brazilian brazilian city streets and rideshare car with analog tools and warm afternoon light, shot on 3...
[inemaimg] ✅ saved: /home/nmaldaner/projetos/timesmkt3/prj/inema/videos/gertran-nostalgia/motorista-app_2026-04-23/imgs/nost19.png  (server=2.12s wall=2.2s vram=32.3GB)
── 20/20 ── nost20.png
[inemaimg] model=flux2-klein quality=fast ratio=1:1 (512x512) steps=4
[inemaimg] prompt: Close-up of a hand-written note from the 1980s with blue ink, shot on 35mm film, cinematic grading, warm tungsten light,...
[inemaimg] ✅ saved: /home/nmaldaner/projetos/timesmkt3/prj/inema/videos/gertran-nostalgia/motorista-app_2026-04-23/imgs/nost20.png  (server=2.12s wall=2.2s vram=32.3GB)

[gertran-nostalgia:motorista-app] ✅ 20/20 em 43.9s (fails=0)

=== 2026-04-23T10:19:43.868Z node pipeline/generate-audio.js /tmp/narr/narr-criaprof-motorista-app.mp3 Você foi a criança que sonhava dirigindo o carrinho da sala. Aprendeu a cidade inteira, virou motorista, levou milhares de pessoas ao destino. Viu o táxi virar Uber, o mapa virar GPS, o pagamento virar cashless. Agora a IA prevê onde tem corrida. Você continua sendo a conversa que salva o dia. Continue aprendendo no Inema ponto CLUB. bella ===
  ✅ Chatterbox VC saved: /tmp/narr/narr-criaprof-motorista-app.mp3 (voice rachel, 335 chars)
✅ Audio saved: /tmp/narr/narr-criaprof-motorista-app.mp3
Provider: chatterbox-vc

=== 2026-04-23T10:19:48.951Z node pipeline/generate-audio.js /tmp/narr/narr-gertran-motorista-app.mp3 Você viu o táxi virar Uber, o mapa virar GPS, a demanda virar AI. Você se adaptou sempre. Agora chegou a inteligência artificial. E você sabe o que fazer. Você é da geração que transforma. Continue aprendendo no Inema ponto CLUB. bella ===
  ✅ Chatterbox VC saved: /tmp/narr/narr-gertran-motorista-app.mp3 (voice rachel, 229 chars)
✅ Audio saved: /tmp/narr/narr-gertran-motorista-app.mp3
Provider: chatterbox-vc

=== 2026-04-23T10:19:52.888Z source /home/nmaldaner/miniconda3/etc/profile.d/conda.sh && conda activate chatterbox && python3 transcribe-words.py /tmp/narr/narr-criaprof-motorista-app.mp3 /tmp/narr/whisper-criaprof-motorista-app.json && python3 transcribe-words.py /tmp/narr/narr-gertran-motorista-app.mp3 /tmp/narr/whisper-gertran-motorista-app.json ===
[whisper] device=cuda loading large-v3...
/home/nmaldaner/miniconda3/envs/chatterbox/lib/python3.11/site-packages/torch/cuda/__init__.py:435: UserWarning: 
    Found GPU0 NVIDIA GB10 which is of cuda capability 12.1.
    Minimum and Maximum cuda capability supported by this version of PyTorch is
    (8.0) - (12.0)
    
  queued_call()
  0%|          | 0/2320 [00:00<?, ?frames/s]100%|██████████| 2320/2320 [00:05<00:00, 457.22frames/s]100%|██████████| 2320/2320 [00:05<00:00, 457.21frames/s]
[whisper] 58 palavras -> 15 chunks -> /tmp/narr/whisper-criaprof-motorista-app.json
[whisper] device=cuda loading large-v3...
/home/nmaldaner/miniconda3/envs/chatterbox/lib/python3.11/site-packages/torch/cuda/__init__.py:435: UserWarning: 
    Found GPU0 NVIDIA GB10 which is of cuda capability 12.1.
    Minimum and Maximum cuda capability supported by this version of PyTorch is
    (8.0) - (12.0)
    
  queued_call()
  0%|          | 0/1716 [00:00<?, ?frames/s]100%|██████████| 1716/1716 [00:03<00:00, 436.87frames/s]100%|██████████| 1716/1716 [00:03<00:00, 436.85frames/s]
[whisper] 41 palavras -> 11 chunks -> /tmp/narr/whisper-gertran-motorista-app.json

=== 2026-04-23T10:20:22.069Z node render-criaprof.js motorista-app ===
[motorista-app] detectou N_SCENES=25
[motorista-app] 15 captions via whisper (offset +0.8s)
[motorista-app] render -> /home/nmaldaner/projetos/timesmkt3/prj/inema/videos/criaprof/motorista-app_2026-04-23/video/motorista-app-criaprof.mp4
ffmpeg version 6.1.1-3ubuntu5 Copyright (c) 2000-2023 the FFmpeg developers
  built with gcc 13 (Ubuntu 13.2.0-23ubuntu3)
  configuration: --prefix=/usr --extra-version=3ubuntu5 --toolchain=hardened --libdir=/usr/lib/aarch64-linux-gnu --incdir=/usr/include/aarch64-linux-gnu --arch=arm64 --enable-gpl --disable-stripping --disable-omx --enable-gnutls --enable-libaom --enable-libass --enable-libbs2b --enable-libcaca --enable-libcdio --enable-libcodec2 --enable-libdav1d --enable-libflite --enable-libfontconfig --enable-libfreetype --enable-libfribidi --enable-libglslang --enable-libgme --enable-libgsm --enable-libharfbuzz --enable-libmp3lame --enable-libmysofa --enable-libopenjpeg --enable-libopenmpt --enable-libopus --enable-librubberband --enable-libshine --enable-libsnappy --enable-libsoxr --enable-libspeex --enable-libtheora --enable-libtwolame --enable-libvidstab --enable-libvorbis --enable-libvpx --enable-libwebp --enable-libx265 --enable-libxml2 --enable-libxvid --enable-libzimg --enable-openal --enable-opencl --enable-opengl --disable-sndio --enable-libdc1394 --enable-libdrm --enable-libiec61883 --enable-chromaprint --enable-frei0r --enable-ladspa --enable-libbluray --enable-libjack --enable-libpulse --enable-librabbitmq --enable-librist --enable-libsrt --enable-libssh --enable-libsvtav1 --enable-libx264 --enable-libzmq --enable-libzvbi --enable-lv2 --enable-sdl2 --enable-libplacebo --enable-librav1e --enable-pocketsphinx --enable-librsvg --enable-libjxl --enable-shared
  libavutil      58. 29.100 / 58. 29.100
  libavcodec     60. 31.102 / 60. 31.102
  libavformat    60. 16.100 / 60. 16.100
  libavdevice    60.  3.100 / 60.  3.100
  libavfilter     9. 12.100 /  9. 12.100
  libswscale      7.  5.100 /  7.  5.100
  libswresample   4. 12.100 /  4. 12.100
  libpostproc    57.  3.100 / 57.  3.100
Input #0, png_pipe, from '/home/nmaldaner/projetos/timesmkt3/prj/inema/videos/criaprof/motorista-app_2026-04-23/imgs/cena01-ini.png':
  Duration: N/A, bitrate: N/A
  Stream #0:0: Video: png, rgb24(pc, gbr/unknown/unknown), 512x512, 1 fps, 1 tbr, 1 tbn
Input #1, png_pipe, from '/home/nmaldaner/projetos/timesmkt3/prj/inema/videos/criaprof/motorista-app_2026-04-23/imgs/cena01-fim.png':
  Duration: N/A, bitrate: N/A
  Stream #1:0: Video: png, rgb24(pc, gbr/unknown/unknown), 512x512, 1 fps, 1 tbr, 1 tbn
Input #2, png_pipe, from '/home/nmaldaner/projetos/timesmkt3/prj/inema/videos/criaprof/motorista-app_2026-04-23/imgs/cena02-ini.png':
  Duration: N/A, bitrate: N/A
  Stream #2:0: Video: png, rgb24(pc, gbr/unknown/unknown), 512x512, 1 fps, 1 tbr, 1 tbn
Input #3, png_pipe, from '/home/nmaldaner/projetos/timesmkt3/prj/inema/videos/criaprof/motorista-app_2026-04-23/imgs/cena02-fim.png':
  Duration: N/A, bitrate: N/A
  Stream #3:0: Video: png, rgb24(pc, gbr/unknown/unknown), 512x512, 1 fps, 1 tbr, 1 tbn
Input #4, png_pipe, from '/home/nmaldaner/projetos/timesmkt3/prj/inema/videos/criaprof/motorista-app_2026-04-23/imgs/cena03-ini.png':
  Duration: N/A, bitrate: N/A
  Stream #4:0: Video: png, rgb24(pc, gbr/unknown/unknown), 512x512, 1 fps, 1 tbr, 1 tbn
Input #5, png_pipe, from '/home/nmaldaner/projetos/timesmkt3/prj/inema/videos/criaprof/motorista-app_2026-04-23/imgs/cena03-fim.png':
  Duration: N/A, bitrate: N/A
  Stream #5:0: Video: png, rgb24(pc, gbr/unknown/unknown), 512x512, 1 fps, 1 tbr, 1 tbn
Input #6, png_pipe, from '/home/nmaldaner/projetos/timesmkt3/prj/inema/videos/criaprof/motorista-app_2026-04-23/imgs/cena04-ini.png':
  Duration: N/A, bitrate: N/A
  Stream #6:0: Video: png, rgb24(pc, gbr/unknown/unknown), 512x512, 1 fps, 1 tbr, 1 tbn
Input #7, png_pipe, from '/home/nmaldaner/projetos/timesmkt3/prj/inema/videos/criaprof/motorista-app_2026-04-23/imgs/cena04-fim.png':
  Duration: N/A, bitrate: N/A
  Stream #7:0: Video: png, rgb24(pc, gbr/unknown/unknown), 512x512, 1 fps, 1 tbr, 1 tbn
Input #8, png_pipe, from '/home/nmaldaner/projetos/timesmkt3/prj/inema/videos/criaprof/motorista-app_2026-04-23/imgs/cena05-ini.png':
  Duration: N/A, bitrate: N/A
  Stream #8:0: Video: png, rgb24(pc, gbr/unknown/unknown), 512x512, 1 fps, 1 tbr, 1 tbn
Input #9, png_pipe, from '/home/nmaldaner/projetos/timesmkt3/prj/inema/videos/criaprof/motorista-app_2026-04-23/imgs/cena05-fim.png':
  Duration: N/A, bitrate: N/A
  Stream #9:0: Video: png, rgb24(pc, gbr/unknown/unknown), 512x512, 1 fps, 1 tbr, 1 tbn
Input #10, png_pipe, from '/home/nmaldaner/projetos/timesmkt3/prj/inema/videos/criaprof/motorista-app_2026-04-23/imgs/cena06-ini.png':
  Duration: N/A, bitrate: N/A
  Stream #10:0: Video: png, rgb24(pc, gbr/unknown/unknown), 512x512, 1 fps, 1 tbr, 1 tbn
Input #11, png_pipe, from '/home/nmaldaner/projetos/timesmkt3/prj/inema/videos/criaprof/motorista-app_2026-04-23/imgs/cena06-fim.png':
  Duration: N/A, bitrate: N/A
  Stream #11:0: Video: png, rgb24(pc, gbr/unknown/unknown), 512x512, 1 fps, 1 tbr, 1 tbn
Input #12, png_pipe, from '/home/nmaldaner/projetos/timesmkt3/prj/inema/videos/criaprof/motorista-app_2026-04-23/imgs/cena07-ini.png':
  Duration: N/A, bitrate: N/A
  Stream #12:0: Video: png, rgb24(pc, gbr/unknown/unknown), 512x512, 1 fps, 1 tbr, 1 tbn
Input #13, png_pipe, from '/home/nmaldaner/projetos/timesmkt3/prj/inema/videos/criaprof/motorista-app_2026-04-23/imgs/cena07-fim.png':
  Duration: N/A, bitrate: N/A
  Stream #13:0: Video: png, rgb24(pc, gbr/unknown/unknown), 512x512, 1 fps, 1 tbr, 1 tbn
Input #14, png_pipe, from '/home/nmaldaner/projetos/timesmkt3/prj/inema/videos/criaprof/motorista-app_2026-04-23/imgs/cena08-ini.png':
  Duration: N/A, bitrate: N/A
  Stream #14:0: Video: png, rgb24(pc, gbr/unknown/unknown), 512x512, 1 fps, 1 tbr, 1 tbn
Input #15, png_pipe, from '/home/nmaldaner/projetos/timesmkt3/prj/inema/videos/criaprof/motorista-app_2026-04-23/imgs/cena08-fim.png':
  Duration: N/A, bitrate: N/A
  Stream #15:0: Video: png, rgb24(pc, gbr/unknown/unknown), 512x512, 1 fps, 1 tbr, 1 tbn
Input #16, png_pipe, from '/home/nmaldaner/projetos/timesmkt3/prj/inema/videos/criaprof/motorista-app_2026-04-23/imgs/cena09-ini.png':
  Duration: N/A, bitrate: N/A
  Stream #16:0: Video: png, rgb24(pc, gbr/unknown/unknown), 512x512, 1 fps, 1 tbr, 1 tbn
Input #17, png_pipe, from '/home/nmaldaner/projetos/timesmkt3/prj/inema/videos/criaprof/motorista-app_2026-04-23/imgs/cena09-fim.png':
  Duration: N/A, bitrate: N/A
  Stream #17:0: Video: png, rgb24(pc, gbr/unknown/unknown), 512x512, 1 fps, 1 tbr, 1 tbn
Input #18, png_pipe, from '/home/nmaldaner/projetos/timesmkt3/prj/inema/videos/criaprof/motorista-app_2026-04-23/imgs/cena10-ini.png':
  Duration: N/A, bitrate: N/A
  Stream #18:0: Video: png, rgb24(pc, gbr/unknown/unknown), 512x512, 1 fps, 1 tbr, 1 tbn
Input #19, png_pipe, from '/home/nmaldaner/projetos/timesmkt3/prj/inema/videos/criaprof/motorista-app_2026-04-23/imgs/cena10-fim.png':
  Duration: N/A, bitrate: N/A
  Stream #19:0: Video: png, rgb24(pc, gbr/unknown/unknown), 512x512, 1 fps, 1 tbr, 1 tbn
Input #20, png_pipe, from '/home/nmaldaner/projetos/timesmkt3/prj/inema/videos/criaprof/motorista-app_2026-04-23/imgs/cena11-ini.png':
  Duration: N/A, bitrate: N/A
  Stream #20:0: Video: png, rgb24(pc, gbr/unknown/unknown), 512x512, 1 fps, 1 tbr, 1 tbn
Input #21, png_pipe, from '/home/nmaldaner/projetos/timesmkt3/prj/inema/videos/criaprof/motorista-app_2026-04-23/imgs/cena11-fim.png':
  Duration: N/A, bitrate: N/A
  Stream #21:0: Video: png, rgb24(pc, gbr/unknown/unknown), 512x512, 1 fps, 1 tbr, 1 tbn
Input #22, png_pipe, from '/home/nmaldaner/projetos/timesmkt3/prj/inema/videos/criaprof/motorista-app_2026-04-23/imgs/cena12-ini.png':
  Duration: N/A, bitrate: N/A
  Stream #22:0: Video: png, rgb24(pc, gbr/unknown/unknown), 512x512, 1 fps, 1 tbr, 1 tbn
Input #23, png_pipe, from '/home/nmaldaner/projetos/timesmkt3/prj/inema/videos/criaprof/motorista-app_2026-04-23/imgs/cena12-fim.png':
  Duration: N/A, bitrate: N/A
  Stream #23:0: Video: png, rgb24(pc, gbr/unknown/unknown), 512x512, 1 fps, 1 tbr, 1 tbn
Input #24, png_pipe, from '/home/nmaldaner/projetos/timesmkt3/prj/inema/videos/criaprof/motorista-app_2026-04-23/imgs/cena13-ini.png':
  Duration: N/A, bitrate: N/A
  Stream #24:0: Video: png, rgb24(pc, gbr/unknown/unknown), 512x512, 1 fps, 1 tbr, 1 tbn
Input #25, png_pipe, from '/home/nmaldaner/projetos/timesmkt3/prj/inema/videos/criaprof/motorista-app_2026-04-23/imgs/cena13-fim.png':
  Duration: N/A, bitrate: N/A
  Stream #25:0: Video: png, rgb24(pc, gbr/unknown/unknown), 512x512, 1 fps, 1 tbr, 1 tbn
Input #26, png_pipe, from '/home/nmaldaner/projetos/timesmkt3/prj/inema/videos/criaprof/motorista-app_2026-04-23/imgs/cena14-ini.png':
  Duration: N/A, bitrate: N/A
  Stream #26:0: Video: png, rgb24(pc, gbr/unknown/unknown), 512x512, 1 fps, 1 tbr, 1 tbn
Input #27, png_pipe, from '/home/nmaldaner/projetos/timesmkt3/prj/inema/videos/criaprof/motorista-app_2026-04-23/imgs/cena14-fim.png':
  Duration: N/A, bitrate: N/A
  Stream #27:0: Video: png, rgb24(pc, gbr/unknown/unknown), 512x512, 1 fps, 1 tbr, 1 tbn
Input #28, png_pipe, from '/home/nmaldaner/projetos/timesmkt3/prj/inema/videos/criaprof/motorista-app_2026-04-23/imgs/cena15-ini.png':
  Duration: N/A, bitrate: N/A
  Stream #28:0: Video: png, rgb24(pc, gbr/unknown/unknown), 512x512, 1 fps, 1 tbr, 1 tbn
Input #29, png_pipe, from '/home/nmaldaner/projetos/timesmkt3/prj/inema/videos/criaprof/motorista-app_2026-04-23/imgs/cena15-fim.png':
  Duration: N/A, bitrate: N/A
  Stream #29:0: Video: png, rgb24(pc, gbr/unknown/unknown), 512x512, 1 fps, 1 tbr, 1 tbn
Input #30, png_pipe, from '/home/nmaldaner/projetos/timesmkt3/prj/inema/videos/criaprof/motorista-app_2026-04-23/imgs/cena16-ini.png':
  Duration: N/A, bitrate: N/A
  Stream #30:0: Video: png, rgb24(pc, gbr/unknown/unknown), 512x512, 1 fps, 1 tbr, 1 tbn
Input #31, png_pipe, from '/home/nmaldaner/projetos/timesmkt3/prj/inema/videos/criaprof/motorista-app_2026-04-23/imgs/cena16-fim.png':
  Duration: N/A, bitrate: N/A
  Stream #31:0: Video: png, rgb24(pc, gbr/unknown/unknown), 512x512, 1 fps, 1 tbr, 1 tbn
Input #32, png_pipe, from '/home/nmaldaner/projetos/timesmkt3/prj/inema/videos/criaprof/motorista-app_2026-04-23/imgs/cena17-ini.png':
  Duration: N/A, bitrate: N/A
  Stream #32:0: Video: png, rgb24(pc, gbr/unknown/unknown), 512x512, 1 fps, 1 tbr, 1 tbn
Input #33, png_pipe, from '/home/nmaldaner/projetos/timesmkt3/prj/inema/videos/criaprof/motorista-app_2026-04-23/imgs/cena17-fim.png':
  Duration: N/A, bitrate: N/A
  Stream #33:0: Video: png, rgb24(pc, gbr/unknown/unknown), 512x512, 1 fps, 1 tbr, 1 tbn
Input #34, png_pipe, from '/home/nmaldaner/projetos/timesmkt3/prj/inema/videos/criaprof/motorista-app_2026-04-23/imgs/cena18-ini.png':
  Duration: N/A, bitrate: N/A
  Stream #34:0: Video: png, rgb24(pc, gbr/unknown/unknown), 512x512, 1 fps, 1 tbr, 1 tbn
Input #35, png_pipe, from '/home/nmaldaner/projetos/timesmkt3/prj/inema/videos/criaprof/motorista-app_2026-04-23/imgs/cena18-fim.png':
  Duration: N/A, bitrate: N/A
  Stream #35:0: Video: png, rgb24(pc, gbr/unknown/unknown), 512x512, 1 fps, 1 tbr, 1 tbn
Input #36, png_pipe, from '/home/nmaldaner/projetos/timesmkt3/prj/inema/videos/criaprof/motorista-app_2026-04-23/imgs/cena19-ini.png':
  Duration: N/A, bitrate: N/A
  Stream #36:0: Video: png, rgb24(pc, gbr/unknown/unknown), 512x512, 1 fps, 1 tbr, 1 tbn
Input #37, png_pipe, from '/home/nmaldaner/projetos/timesmkt3/prj/inema/videos/criaprof/motorista-app_2026-04-23/imgs/cena19-fim.png':
  Duration: N/A, bitrate: N/A
  Stream #37:0: Video: png, rgb24(pc, gbr/unknown/unknown), 512x512, 1 fps, 1 tbr, 1 tbn
Input #38, png_pipe, from '/home/nmaldaner/projetos/timesmkt3/prj/inema/videos/criaprof/motorista-app_2026-04-23/imgs/cena20-ini.png':
  Duration: N/A, bitrate: N/A
  Stream #38:0: Video: png, rgb24(pc, gbr/unknown/unknown), 512x512, 1 fps, 1 tbr, 1 tbn
Input #39, png_pipe, from '/home/nmaldaner/projetos/timesmkt3/prj/inema/videos/criaprof/motorista-app_2026-04-23/imgs/cena20-fim.png':
  Duration: N/A, bitrate: N/A
  Stream #39:0: Video: png, rgb24(pc, gbr/unknown/unknown), 512x512, 1 fps, 1 tbr, 1 tbn
Input #40, png_pipe, from '/home/nmaldaner/projetos/timesmkt3/prj/inema/videos/criaprof/motorista-app_2026-04-23/imgs/cena21-ini.png':
  Duration: N/A, bitrate: N/A
  Stream #40:0: Video: png, rgb24(pc, gbr/unknown/unknown), 512x512, 1 fps, 1 tbr, 1 tbn
Input #41, png_pipe, from '/home/nmaldaner/projetos/timesmkt3/prj/inema/videos/criaprof/motorista-app_2026-04-23/imgs/cena21-fim.png':
  Duration: N/A, bitrate: N/A
  Stream #41:0: Video: png, rgb24(pc, gbr/unknown/unknown), 512x512, 1 fps, 1 tbr, 1 tbn
Input #42, png_pipe, from '/home/nmaldaner/projetos/timesmkt3/prj/inema/videos/criaprof/motorista-app_2026-04-23/imgs/cena22-ini.png':
  Duration: N/A, bitrate: N/A
  Stream #42:0: Video: png, rgb24(pc, gbr/unknown/unknown), 512x512, 1 fps, 1 tbr, 1 tbn
Input #43, png_pipe, from '/home/nmaldaner/projetos/timesmkt3/prj/inema/videos/criaprof/motorista-app_2026-04-23/imgs/cena22-fim.png':
  Duration: N/A, bitrate: N/A
  Stream #43:0: Video: png, rgb24(pc, gbr/unknown/unknown), 512x512, 1 fps, 1 tbr, 1 tbn
Input #44, png_pipe, from '/home/nmaldaner/projetos/timesmkt3/prj/inema/videos/criaprof/motorista-app_2026-04-23/imgs/cena23-ini.png':
  Duration: N/A, bitrate: N/A
  Stream #44:0: Video: png, rgb24(pc, gbr/unknown/unknown), 512x512, 1 fps, 1 tbr, 1 tbn
Input #45, png_pipe, from '/home/nmaldaner/projetos/timesmkt3/prj/inema/videos/criaprof/motorista-app_2026-04-23/imgs/cena23-fim.png':
  Duration: N/A, bitrate: N/A
  Stream #45:0: Video: png, rgb24(pc, gbr/unknown/unknown), 512x512, 1 fps, 1 tbr, 1 tbn
Input #46, png_pipe, from '/home/nmaldaner/projetos/timesmkt3/prj/inema/videos/criaprof/motorista-app_2026-04-23/imgs/cena24-ini.png':
  Duration: N/A, bitrate: N/A
  Stream #46:0: Video: png, rgb24(pc, gbr/unknown/unknown), 512x512, 1 fps, 1 tbr, 1 tbn
Input #47, png_pipe, from '/home/nmaldaner/projetos/timesmkt3/prj/inema/videos/criaprof/motorista-app_2026-04-23/imgs/cena24-fim.png':
  Duration: N/A, bitrate: N/A
  Stream #47:0: Video: png, rgb24(pc, gbr/unknown/unknown), 512x512, 1 fps, 1 tbr, 1 tbn
Input #48, png_pipe, from '/home/nmaldaner/projetos/timesmkt3/prj/inema/videos/criaprof/motorista-app_2026-04-23/imgs/cena25-ini.png':
  Duration: N/A, bitrate: N/A
  Stream #48:0: Video: png, rgb24(pc, gbr/unknown/unknown), 512x512, 1 fps, 1 tbr, 1 tbn
Input #49, png_pipe, from '/home/nmaldaner/projetos/timesmkt3/prj/inema/videos/criaprof/motorista-app_2026-04-23/imgs/cena25-fim.png':
  Duration: N/A, bitrate: N/A
  Stream #49:0: Video: png, rgb24(pc, gbr/unknown/unknown), 512x512, 1 fps, 1 tbr, 1 tbn
Input #50, mp3, from '/tmp/musica_video/mulheres/freesound_719036_Melancholy_Background_Piano__-_bpm_112_l.mp3':
  Duration: 00:01:08.60, start: 0.025057, bitrate: 191 kb/s
  Stream #50:0: Audio: mp3, 44100 Hz, stereo, fltp, 191 kb/s
    Metadata:
      encoder         : LAME3.100
    Side data:
      replaygain: track gain - -5.600000, track peak - unknown, album gain - unknown, album peak - unknown, 
Input #51, mp3, from '/tmp/narr/narr-criaprof-motorista-app.mp3':
  Metadata:
    encoder         : Lavf60.16.100
  Duration: 00:00:23.26, start: 0.046042, bitrate: 128 kb/s
  Stream #51:0: Audio: mp3, 24000 Hz, mono, fltp, 128 kb/s
Stream mapping:
  Stream #0:0 (png) -> zoompan:default
  Stream #1:0 (png) -> zoompan:default
  Stream #2:0 (png) -> zoompan:default
  Stream #3:0 (png) -> zoompan:default
  Stream #4:0 (png) -> zoompan:default
  Stream #5:0 (png) -> zoompan:default
  Stream #6:0 (png) -> zoompan:default
  Stream #7:0 (png) -> zoompan:default
  Stream #8:0 (png) -> zoompan:default
  Stream #9:0 (png) -> zoompan:default
  Stream #10:0 (png) -> zoompan:default
  Stream #11:0 (png) -> zoompan:default
  Stream #12:0 (png) -> zoompan:default
  Stream #13:0 (png) -> zoompan:default
  Stream #14:0 (png) -> zoompan:default
  Stream #15:0 (png) -> zoompan:default
  Stream #16:0 (png) -> zoompan:default
  Stream #17:0 (png) -> zoompan:default
  Stream #18:0 (png) -> zoompan:default
  Stream #19:0 (png) -> zoompan:default
  Stream #20:0 (png) -> zoompan:default
  Stream #21:0 (png) -> zoompan:default
  Stream #22:0 (png) -> zoompan:default
  Stream #23:0 (png) -> zoompan:default
  Stream #24:0 (png) -> zoompan:default
  Stream #25:0 (png) -> zoompan:default
  Stream #26:0 (png) -> zoompan:default
  Stream #27:0 (png) -> zoompan:default
  Stream #28:0 (png) -> zoompan:default
  Stream #29:0 (png) -> zoompan:default
  Stream #30:0 (png) -> zoompan:default
  Stream #31:0 (png) -> zoompan:default
  Stream #32:0 (png) -> zoompan:default
  Stream #33:0 (png) -> zoompan:default
  Stream #34:0 (png) -> zoompan:default
  Stream #35:0 (png) -> zoompan:default
  Stream #36:0 (png) -> zoompan:default
  Stream #37:0 (png) -> zoompan:default
  Stream #38:0 (png) -> zoompan:default
  Stream #39:0 (png) -> zoompan:default
  Stream #40:0 (png) -> zoompan:default
  Stream #41:0 (png) -> zoompan:default
  Stream #42:0 (png) -> zoompan:default
  Stream #43:0 (png) -> zoompan:default
  Stream #44:0 (png) -> zoompan:default
  Stream #45:0 (png) -> zoompan:default
  Stream #46:0 (png) -> zoompan:default
  Stream #47:0 (png) -> zoompan:default
  Stream #48:0 (png) -> zoompan:default
  Stream #49:0 (png) -> zoompan:default
  Stream #50:0 (mp3float) -> atrim:default
  Stream #51:0 (mp3float) -> adelay:default
  drawtext:default -> Stream #0:0 (libx264)
  asetpts:default -> Stream #0:1 (aac)
Press [q] to stop, [?] for help
[libx264 @ 0xb080d2bf3cc0] using cpu capabilities: ARMv8 NEON
[libx264 @ 0xb080d2bf3cc0] profile High, level 3.2, 4:2:0, 8-bit
[libx264 @ 0xb080d2bf3cc0] 264 - core 164 r3108 31e19f9 - H.264/MPEG-4 AVC codec - Copyleft 2003-2023 - http://www.videolan.org/x264.html - options: cabac=1 ref=3 deblock=1:0:0 analyse=0x3:0x113 me=hex subme=7 psy=1 psy_rd=1.00:0.00 mixed_ref=1 me_range=16 chroma_me=1 trellis=1 8x8dct=1 cqm=0 deadzone=21,11 fast_pskip=1 chroma_qp_offset=-2 threads=30 lookahead_threads=5 sliced_threads=0 nr=0 decimate=1 interlaced=0 bluray_compat=0 constrained_intra=0 bframes=3 b_pyramid=2 b_adapt=1 b_bias=0 direct=1 weightb=1 open_gop=0 weightp=2 keyint=250 keyint_min=25 scenecut=40 intra_refresh=0 rc_lookahead=40 rc=crf mbtree=1 crf=20.0 qcomp=0.60 qpmin=0 qpmax=69 qpstep=4 ip_ratio=1.40 aq=1:1.00
Output #0, mp4, to '/home/nmaldaner/projetos/timesmkt3/prj/inema/videos/criaprof/motorista-app_2026-04-23/video/motorista-app-criaprof.mp4':
  Metadata:
    encoder         : Lavf60.16.100
  Stream #0:0: Video: h264 (avc1 / 0x31637661), yuv420p(progressive), 1080x1080, q=2-31, 30 fps, 15360 tbn
    Metadata:
      encoder         : Lavc60.31.102 libx264
    Side data:
      cpb: bitrate max/min/avg: 0/0/0 buffer size: 0 vbv_delay: N/A
  Stream #0:1: Audio: aac (LC) (mp4a / 0x6134706D), 44100 Hz, stereo, fltp, 192 kb/s
    Metadata:
      encoder         : Lavc60.31.102 aac
frame=    0 fps=0.0 q=0.0 size=       0kB time=N/A bitrate=N/A speed=N/A    frame=    0 fps=0.0 q=0.0 size=       0kB time=00:00:01.32 bitrate=   0.3kbits/s speed=1.67x    frame=  109 fps= 84 q=26.0 size=    1280kB time=00:00:05.99 bitrate=1750.4kbits/s speed=4.64x    frame=  281 fps=157 q=26.0 size=    3328kB time=00:00:11.72 bitrate=2325.0kbits/s speed=6.55x    frame=  456 fps=199 q=26.0 size=    5120kB time=00:00:17.57 bitrate=2386.2kbits/s speed=7.67x    frame=  622 fps=223 q=26.0 size=    6400kB time=00:00:23.12 bitrate=2267.0kbits/s speed=8.28x    frame=  795 fps=241 q=26.0 size=    7936kB time=00:00:28.88 bitrate=2250.7kbits/s speed=8.77x    frame=  953 fps=251 q=26.0 size=    9216kB time=00:00:34.13 bitrate=2211.9kbits/s speed=8.99x    frame= 1115 fps=259 q=26.0 size=   10496kB time=00:00:39.54 bitrate=2174.4kbits/s speed= 9.2x    frame= 1266 fps=263 q=26.0 size=   11520kB time=00:00:44.58 bitrate=2116.8kbits/s speed=9.27x    [mp4 @ 0xb080d2bf2cd0] Starting second pass: moving the moov atom to the beginning of the file
[out#0/mp4 @ 0xb080d2bf2b60] video:11344kB audio:1081kB subtitle:0kB other streams:0kB global headers:0kB muxing overhead: 0.395986%
frame= 1350 fps=262 q=-1.0 Lsize=   12474kB time=00:00:44.97 bitrate=2272.0kbits/s speed=8.74x    
[libx264 @ 0xb080d2bf3cc0] frame I:38    Avg QP:15.70  size:124276
[libx264 @ 0xb080d2bf3cc0] frame P:348   Avg QP:20.01  size: 11821
[libx264 @ 0xb080d2bf3cc0] frame B:964   Avg QP:23.90  size:  2884
[libx264 @ 0xb080d2bf3cc0] consecutive B-frames:  3.2%  4.7%  0.2% 91.9%
[libx264 @ 0xb080d2bf3cc0] mb I  I16..4:  5.3% 82.1% 12.6%
[libx264 @ 0xb080d2bf3cc0] mb P  I16..4:  0.4%  3.5%  0.5%  P16..4: 37.5% 10.1%  5.0%  0.0%  0.0%    skip:43.0%
[libx264 @ 0xb080d2bf3cc0] mb B  I16..4:  0.0%  0.1%  0.0%  B16..8: 36.4%  0.8%  0.2%  direct: 1.0%  skip:61.5%  L0:56.5% L1:42.7% BI: 0.8%
[libx264 @ 0xb080d2bf3cc0] 8x8 transform intra:81.3% inter:93.3%
[libx264 @ 0xb080d2bf3cc0] coded y,uvDC,uvAC intra: 88.8% 85.5% 67.6% inter: 4.4% 9.6% 0.9%
[libx264 @ 0xb080d2bf3cc0] i16 v,h,dc,p: 29% 25%  2% 44%
[libx264 @ 0xb080d2bf3cc0] i8 v,h,dc,ddl,ddr,vr,hd,vl,hu: 21% 21% 15%  6%  7%  7%  8%  7%  9%
[libx264 @ 0xb080d2bf3cc0] i4 v,h,dc,ddl,ddr,vr,hd,vl,hu: 23% 22% 10%  5% 11%  9%  9%  6%  6%
[libx264 @ 0xb080d2bf3cc0] i8c dc,h,v,p: 40% 26% 24% 10%
[libx264 @ 0xb080d2bf3cc0] Weighted P-Frames: Y:0.0% UV:0.0%
[libx264 @ 0xb080d2bf3cc0] ref P L0: 76.1%  9.3%  8.6%  6.0%
[libx264 @ 0xb080d2bf3cc0] ref B L0: 90.8%  7.9%  1.3%
[libx264 @ 0xb080d2bf3cc0] ref B L1: 96.8%  3.2%
[libx264 @ 0xb080d2bf3cc0] kb/s:2065.03
[aac @ 0xb080d2bf5630] Qavg: 558.434
[motorista-app] ✅ 12.2 MB em 5.6s

=== 2026-04-23T10:20:27.729Z node render-gertran.js motorista-app ===
[gertran motorista-app] render -> /home/nmaldaner/projetos/timesmkt3/prj/inema/videos/gertran/motorista-app_2026-04-23/video/gertran-motorista-app-31s.mp4
ffmpeg version 6.1.1-3ubuntu5 Copyright (c) 2000-2023 the FFmpeg developers
  built with gcc 13 (Ubuntu 13.2.0-23ubuntu3)
  configuration: --prefix=/usr --extra-version=3ubuntu5 --toolchain=hardened --libdir=/usr/lib/aarch64-linux-gnu --incdir=/usr/include/aarch64-linux-gnu --arch=arm64 --enable-gpl --disable-stripping --disable-omx --enable-gnutls --enable-libaom --enable-libass --enable-libbs2b --enable-libcaca --enable-libcdio --enable-libcodec2 --enable-libdav1d --enable-libflite --enable-libfontconfig --enable-libfreetype --enable-libfribidi --enable-libglslang --enable-libgme --enable-libgsm --enable-libharfbuzz --enable-libmp3lame --enable-libmysofa --enable-libopenjpeg --enable-libopenmpt --enable-libopus --enable-librubberband --enable-libshine --enable-libsnappy --enable-libsoxr --enable-libspeex --enable-libtheora --enable-libtwolame --enable-libvidstab --enable-libvorbis --enable-libvpx --enable-libwebp --enable-libx265 --enable-libxml2 --enable-libxvid --enable-libzimg --enable-openal --enable-opencl --enable-opengl --disable-sndio --enable-libdc1394 --enable-libdrm --enable-libiec61883 --enable-chromaprint --enable-frei0r --enable-ladspa --enable-libbluray --enable-libjack --enable-libpulse --enable-librabbitmq --enable-librist --enable-libsrt --enable-libssh --enable-libsvtav1 --enable-libx264 --enable-libzmq --enable-libzvbi --enable-lv2 --enable-sdl2 --enable-libplacebo --enable-librav1e --enable-pocketsphinx --enable-librsvg --enable-libjxl --enable-shared
  libavutil      58. 29.100 / 58. 29.100
  libavcodec     60. 31.102 / 60. 31.102
  libavformat    60. 16.100 / 60. 16.100
  libavdevice    60.  3.100 / 60.  3.100
  libavfilter     9. 12.100 /  9. 12.100
  libswscale      7.  5.100 /  7.  5.100
  libswresample   4. 12.100 /  4. 12.100
  libpostproc    57.  3.100 / 57.  3.100
Input #0, png_pipe, from '/home/nmaldaner/projetos/timesmkt3/prj/inema/videos/gertran-nostalgia/motorista-app_2026-04-23/imgs/nost01.png':
  Duration: N/A, bitrate: N/A
  Stream #0:0: Video: png, rgb24(pc, gbr/unknown/unknown), 512x512, 30 fps, 30 tbr, 30 tbn
Input #1, png_pipe, from '/home/nmaldaner/projetos/timesmkt3/prj/inema/videos/gertran-nostalgia/motorista-app_2026-04-23/imgs/nost02.png':
  Duration: N/A, bitrate: N/A
  Stream #1:0: Video: png, rgb24(pc, gbr/unknown/unknown), 512x512, 30 fps, 30 tbr, 30 tbn
Input #2, png_pipe, from '/home/nmaldaner/projetos/timesmkt3/prj/inema/videos/gertran-nostalgia/motorista-app_2026-04-23/imgs/nost03.png':
  Duration: N/A, bitrate: N/A
  Stream #2:0: Video: png, rgb24(pc, gbr/unknown/unknown), 512x512, 30 fps, 30 tbr, 30 tbn
Input #3, png_pipe, from '/home/nmaldaner/projetos/timesmkt3/prj/inema/videos/gertran-nostalgia/motorista-app_2026-04-23/imgs/nost04.png':
  Duration: N/A, bitrate: N/A
  Stream #3:0: Video: png, rgb24(pc, gbr/unknown/unknown), 512x512, 30 fps, 30 tbr, 30 tbn
Input #4, png_pipe, from '/home/nmaldaner/projetos/timesmkt3/prj/inema/videos/gertran-nostalgia/motorista-app_2026-04-23/imgs/nost05.png':
  Duration: N/A, bitrate: N/A
  Stream #4:0: Video: png, rgb24(pc, gbr/unknown/unknown), 512x512, 30 fps, 30 tbr, 30 tbn
Input #5, png_pipe, from '/home/nmaldaner/projetos/timesmkt3/prj/inema/videos/gertran-nostalgia/motorista-app_2026-04-23/imgs/nost06.png':
  Duration: N/A, bitrate: N/A
  Stream #5:0: Video: png, rgb24(pc, gbr/unknown/unknown), 512x512, 30 fps, 30 tbr, 30 tbn
Input #6, png_pipe, from '/home/nmaldaner/projetos/timesmkt3/prj/inema/videos/gertran-nostalgia/motorista-app_2026-04-23/imgs/nost07.png':
  Duration: N/A, bitrate: N/A
  Stream #6:0: Video: png, rgb24(pc, gbr/unknown/unknown), 512x512, 30 fps, 30 tbr, 30 tbn
Input #7, png_pipe, from '/home/nmaldaner/projetos/timesmkt3/prj/inema/videos/gertran-nostalgia/motorista-app_2026-04-23/imgs/nost08.png':
  Duration: N/A, bitrate: N/A
  Stream #7:0: Video: png, rgb24(pc, gbr/unknown/unknown), 512x512, 30 fps, 30 tbr, 30 tbn
Input #8, png_pipe, from '/home/nmaldaner/projetos/timesmkt3/prj/inema/videos/gertran-nostalgia/motorista-app_2026-04-23/imgs/nost09.png':
  Duration: N/A, bitrate: N/A
  Stream #8:0: Video: png, rgb24(pc, gbr/unknown/unknown), 512x512, 30 fps, 30 tbr, 30 tbn
Input #9, png_pipe, from '/home/nmaldaner/projetos/timesmkt3/prj/inema/videos/gertran-nostalgia/motorista-app_2026-04-23/imgs/nost10.png':
  Duration: N/A, bitrate: N/A
  Stream #9:0: Video: png, rgb24(pc, gbr/unknown/unknown), 512x512, 30 fps, 30 tbr, 30 tbn
Input #10, png_pipe, from '/home/nmaldaner/projetos/timesmkt3/prj/inema/videos/gertran-nostalgia/motorista-app_2026-04-23/imgs/nost11.png':
  Duration: N/A, bitrate: N/A
  Stream #10:0: Video: png, rgb24(pc, gbr/unknown/unknown), 512x512, 30 fps, 30 tbr, 30 tbn
Input #11, png_pipe, from '/home/nmaldaner/projetos/timesmkt3/prj/inema/videos/gertran-nostalgia/motorista-app_2026-04-23/imgs/nost12.png':
  Duration: N/A, bitrate: N/A
  Stream #11:0: Video: png, rgb24(pc, gbr/unknown/unknown), 512x512, 30 fps, 30 tbr, 30 tbn
Input #12, png_pipe, from '/home/nmaldaner/projetos/timesmkt3/prj/inema/videos/gertran-nostalgia/motorista-app_2026-04-23/imgs/nost13.png':
  Duration: N/A, bitrate: N/A
  Stream #12:0: Video: png, rgb24(pc, gbr/unknown/unknown), 512x512, 30 fps, 30 tbr, 30 tbn
Input #13, png_pipe, from '/home/nmaldaner/projetos/timesmkt3/prj/inema/videos/gertran-nostalgia/motorista-app_2026-04-23/imgs/nost14.png':
  Duration: N/A, bitrate: N/A
  Stream #13:0: Video: png, rgb24(pc, gbr/unknown/unknown), 512x512, 30 fps, 30 tbr, 30 tbn
Input #14, png_pipe, from '/home/nmaldaner/projetos/timesmkt3/prj/inema/videos/gertran-nostalgia/motorista-app_2026-04-23/imgs/nost15.png':
  Duration: N/A, bitrate: N/A
  Stream #14:0: Video: png, rgb24(pc, gbr/unknown/unknown), 512x512, 30 fps, 30 tbr, 30 tbn
Input #15, png_pipe, from '/home/nmaldaner/projetos/timesmkt3/prj/inema/videos/gertran-nostalgia/motorista-app_2026-04-23/imgs/nost16.png':
  Duration: N/A, bitrate: N/A
  Stream #15:0: Video: png, rgb24(pc, gbr/unknown/unknown), 512x512, 30 fps, 30 tbr, 30 tbn
Input #16, png_pipe, from '/home/nmaldaner/projetos/timesmkt3/prj/inema/videos/gertran-nostalgia/motorista-app_2026-04-23/imgs/nost17.png':
  Duration: N/A, bitrate: N/A
  Stream #16:0: Video: png, rgb24(pc, gbr/unknown/unknown), 512x512, 30 fps, 30 tbr, 30 tbn
Input #17, png_pipe, from '/home/nmaldaner/projetos/timesmkt3/prj/inema/videos/gertran-nostalgia/motorista-app_2026-04-23/imgs/nost18.png':
  Duration: N/A, bitrate: N/A
  Stream #17:0: Video: png, rgb24(pc, gbr/unknown/unknown), 512x512, 30 fps, 30 tbr, 30 tbn
Input #18, png_pipe, from '/home/nmaldaner/projetos/timesmkt3/prj/inema/videos/gertran-nostalgia/motorista-app_2026-04-23/imgs/nost19.png':
  Duration: N/A, bitrate: N/A
  Stream #18:0: Video: png, rgb24(pc, gbr/unknown/unknown), 512x512, 30 fps, 30 tbr, 30 tbn
Input #19, png_pipe, from '/home/nmaldaner/projetos/timesmkt3/prj/inema/videos/gertran-nostalgia/motorista-app_2026-04-23/imgs/nost20.png':
  Duration: N/A, bitrate: N/A
  Stream #19:0: Video: png, rgb24(pc, gbr/unknown/unknown), 512x512, 30 fps, 30 tbr, 30 tbn
Input #20, mp3, from '/tmp/musica_video/mulheres/freesound_719036_Melancholy_Background_Piano__-_bpm_112_l.mp3':
  Duration: 00:01:08.60, start: 0.025057, bitrate: 191 kb/s
  Stream #20:0: Audio: mp3, 44100 Hz, stereo, fltp, 191 kb/s
    Metadata:
      encoder         : LAME3.100
    Side data:
      replaygain: track gain - -5.600000, track peak - unknown, album gain - unknown, album peak - unknown, 
Input #21, mp3, from '/tmp/narr/narr-gertran-motorista-app.mp3':
  Metadata:
    encoder         : Lavf60.16.100
  Duration: 00:00:17.21, start: 0.046042, bitrate: 128 kb/s
  Stream #21:0: Audio: mp3, 24000 Hz, mono, fltp, 128 kb/s
Stream mapping:
  Stream #0:0 (png) -> scale:default
  Stream #1:0 (png) -> scale:default
  Stream #2:0 (png) -> scale:default
  Stream #3:0 (png) -> scale:default
  Stream #4:0 (png) -> scale:default
  Stream #5:0 (png) -> scale:default
  Stream #6:0 (png) -> scale:default
  Stream #7:0 (png) -> scale:default
  Stream #8:0 (png) -> scale:default
  Stream #9:0 (png) -> scale:default
  Stream #10:0 (png) -> scale:default
  Stream #11:0 (png) -> scale:default
  Stream #12:0 (png) -> scale:default
  Stream #13:0 (png) -> scale:default
  Stream #14:0 (png) -> scale:default
  Stream #15:0 (png) -> scale:default
  Stream #16:0 (png) -> scale:default
  Stream #17:0 (png) -> scale:default
  Stream #18:0 (png) -> scale:default
  Stream #19:0 (png) -> scale:default
  Stream #20:0 (mp3float) -> atrim:default
  Stream #21:0 (mp3float) -> adelay:default
  drawtext:default -> Stream #0:0 (libx264)
  asetpts:default -> Stream #0:1 (aac)
Press [q] to stop, [?] for help
[libx264 @ 0xac56aed5e2d0] using SAR=1/1
[libx264 @ 0xac56aed5e2d0] using cpu capabilities: ARMv8 NEON
[libx264 @ 0xac56aed5e2d0] profile High, level 4.0, 4:2:0, 8-bit
[libx264 @ 0xac56aed5e2d0] 264 - core 164 r3108 31e19f9 - H.264/MPEG-4 AVC codec - Copyleft 2003-2023 - http://www.videolan.org/x264.html - options: cabac=1 ref=3 deblock=1:0:0 analyse=0x3:0x113 me=hex subme=7 psy=1 psy_rd=1.00:0.00 mixed_ref=1 me_range=16 chroma_me=1 trellis=1 8x8dct=1 cqm=0 deadzone=21,11 fast_pskip=1 chroma_qp_offset=-2 threads=30 lookahead_threads=5 sliced_threads=0 nr=0 decimate=1 interlaced=0 bluray_compat=0 constrained_intra=0 bframes=3 b_pyramid=2 b_adapt=1 b_bias=0 direct=1 weightb=1 open_gop=0 weightp=2 keyint=250 keyint_min=25 scenecut=40 intra_refresh=0 rc_lookahead=40 rc=crf mbtree=1 crf=20.0 qcomp=0.60 qpmin=0 qpmax=69 qpstep=4 ip_ratio=1.40 aq=1:1.00
Output #0, mp4, to '/home/nmaldaner/projetos/timesmkt3/prj/inema/videos/gertran/motorista-app_2026-04-23/video/gertran-motorista-app-31s.mp4':
  Metadata:
    encoder         : Lavf60.16.100
  Stream #0:0: Video: h264 (avc1 / 0x31637661), yuv420p(progressive), 1080x1920 [SAR 1:1 DAR 9:16], q=2-31, 30 fps, 15360 tbn
    Metadata:
      encoder         : Lavc60.31.102 libx264
    Side data:
      cpb: bitrate max/min/avg: 0/0/0 buffer size: 0 vbv_delay: N/A
  Stream #0:1: Audio: aac (LC) (mp4a / 0x6134706D), 44100 Hz, stereo, fltp, 192 kb/s
    Metadata:
      encoder         : Lavc60.31.102 aac
frame=    0 fps=0.0 q=0.0 size=       0kB time=N/A bitrate=N/A speed=N/A    frame=   36 fps= 28 q=26.0 size=       0kB time=00:00:03.55 bitrate=   0.1kbits/s speed=2.73x    frame=  171 fps= 95 q=26.0 size=     768kB time=00:00:08.08 bitrate= 778.6kbits/s speed=4.49x    frame=  301 fps=131 q=26.0 size=    1536kB time=00:00:12.37 bitrate=1016.7kbits/s speed=5.38x    frame=  440 fps=157 q=26.0 size=    2304kB time=00:00:17.02 bitrate=1109.0kbits/s speed=6.08x    frame=  588 fps=175 q=26.0 size=    3328kB time=00:00:21.98 bitrate=1239.8kbits/s speed=6.55x    frame=  739 fps=191 q=26.0 size=    4096kB time=00:00:27.00 bitrate=1242.5kbits/s speed=   7x    [mp4 @ 0xac56aed5d2d0] Starting second pass: moving the moov atom to the beginning of the file
[out#0/mp4 @ 0xac56aed5d160] video:4534kB audio:741kB subtitle:0kB other streams:0kB global headers:0kB muxing overhead: 0.646414%
frame=  930 fps=218 q=-1.0 Lsize=    5309kB time=00:00:30.99 bitrate=1403.1kbits/s speed=7.25x    
[libx264 @ 0xac56aed5e2d0] frame I:4     Avg QP:11.02  size:179580
[libx264 @ 0xac56aed5e2d0] frame P:243   Avg QP:14.01  size: 15746
[libx264 @ 0xac56aed5e2d0] frame B:683   Avg QP:12.26  size:   142
[libx264 @ 0xac56aed5e2d0] consecutive B-frames:  0.4%  2.4%  7.7% 89.5%
[libx264 @ 0xac56aed5e2d0] mb I  I16..4: 36.3% 51.1% 12.6%
[libx264 @ 0xac56aed5e2d0] mb P  I16..4:  5.2%  5.4%  0.7%  P16..4:  2.1%  0.4%  0.3%  0.0%  0.0%    skip:85.8%
[libx264 @ 0xac56aed5e2d0] mb B  I16..4:  0.0%  0.0%  0.0%  B16..8:  0.6%  0.0%  0.0%  direct: 0.2%  skip:99.2%  L0:28.7% L1:69.7% BI: 1.6%
[libx264 @ 0xac56aed5e2d0] 8x8 transform intra:48.0% inter:79.9%
[libx264 @ 0xac56aed5e2d0] coded y,uvDC,uvAC intra: 41.6% 42.1% 38.0% inter: 0.3% 0.6% 0.1%
[libx264 @ 0xac56aed5e2d0] i16 v,h,dc,p: 91%  5%  1%  3%
[libx264 @ 0xac56aed5e2d0] i8 v,h,dc,ddl,ddr,vr,hd,vl,hu: 16% 30% 18%  5%  6%  5%  6%  5%  8%
[libx264 @ 0xac56aed5e2d0] i4 v,h,dc,ddl,ddr,vr,hd,vl,hu: 23% 24% 12%  5%  9%  7%  8%  5%  6%
[libx264 @ 0xac56aed5e2d0] i8c dc,h,v,p: 73% 13%  9%  5%
[libx264 @ 0xac56aed5e2d0] Weighted P-Frames: Y:2.5% UV:2.5%
[libx264 @ 0xac56aed5e2d0] ref P L0: 78.6%  1.6% 18.3%  1.5%  0.0%
[libx264 @ 0xac56aed5e2d0] ref B L0: 71.0% 28.7%  0.3%
[libx264 @ 0xac56aed5e2d0] ref B L1: 96.5%  3.5%
[libx264 @ 0xac56aed5e2d0] kb/s:1197.94
[aac @ 0xac56aed5fc10] Qavg: 612.016
[gertran motorista-app] ✅ 5.2 MB em 4.6s
